<svg xmlns="http://www.w3.org/2000/svg" viewBox="0 0 80 80"><path d="M35.906 38.214c-.05 4.437 2.006 6.668 4.53 7.925.204.962.546 2.965.543 5.534 0 2.618-.35 5.807-1.494 9.14-1.151 3.337-3.066 6.829-6.349 10.222A5.285 5.285 0 0 0 36.932 80c1.381 0 2.76-.537 3.796-1.607 4.412-4.546 7.163-9.492 8.756-14.148 1.598-4.662 2.067-9.024 2.068-12.572-.005-4.594-.776-7.85-1.038-8.834.233-3.005 1.085-6.077 2.166-9.009H36.448a68.214 68.214 0 0 0-.542 4.384Zm13.752-23.306c2.338 0 4.27 1.903 4.304 4.242a4.277 4.277 0 0 1-1.216 3.063 4.276 4.276 0 0 1-3.026 1.308l-10.216.152a34.877 34.877 0 0 0-1.295 3.11h17.478c.489-1.05.96-2.045 1.384-2.97 2.037-3.515 1.496-8.465-1.861-10.162-2.67-1.35-6.712-1.308-9.931 1.322l4.311-.064.068-.001Zm23.297 18.14a1.958 1.958 0 0 0 1.958-1.958v-1.566a1.958 1.958 0 0 0-1.958-1.957H36.83l-3.14 5.481h39.264ZM25.852 33.048a4.286 4.286 0 0 1 .169-3.947l.88-1.535H7.957A1.958 1.958 0 0 0 6 29.524v1.566a1.958 1.958 0 0 0 1.958 1.958h17.894ZM67.91 17.169A8.808 8.808 0 1 0 62.357.452a8.808 8.808 0 0 0 5.555 16.717Z"/><path d="M26.702 29.491a3.522 3.522 0 0 0 .668 4.34 3.507 3.507 0 0 0 4.776-.001c.249-.229.463-.492.637-.782.01-.019.024-.034.035-.053l5.78-10.092 11.11-.166a3.524 3.524 0 0 0-.104-7.046l-13.117.196a3.508 3.508 0 0 0-3.005 1.77l-6.78 11.834Z"/></svg>