<svg xmlns="http://www.w3.org/2000/svg" viewBox="0 0 74 74"><path d="m35.171 47.526-10.108 1.191a3.112 3.112 0 0 0-2.736 3.452 3.101 3.101 0 0 0 1.594 2.353l10.002-4.61 1.248-2.386ZM60.607 17.976c.211-3.083-2.13-5.753-5.23-5.963-3.1-.21-5.783 2.119-5.995 5.202-.21 3.083 2.13 5.753 5.23 5.963 3.1.21 5.783-2.119 5.995-5.202Z"/><path d="M47.872 23.65c1.279 0 2.374.95 2.547 2.213a2.53 2.53 0 0 1-.5 1.896 2.554 2.554 0 0 1-1.7.99l-4.548.62c-.315 1.48-.687 3.071-1.173 4.634h9.725c.432-1.703.69-3.5.855-5.654.272-3.841-2.123-6.105-4.296-6.447-1.42-.224-2.778.708-3.635 2.095l2.372-.323c.117-.017.235-.025.353-.025Zm-6.8 13.983c-.183.372-.38.737-.59 1.095l-.008.015c-.11.143-.21.295-.294.455l-5.838 11.15-12.413 5.723a3.101 3.101 0 0 0-1.521 4.127 3.126 3.126 0 0 0 4.15 1.513l13.379-6.168a3.118 3.118 0 0 0 1.457-1.384l4.375-8.355.059.011.909-1.684c1.414.036 2.89-.55 4.226-2.521.825-1.443 1.485-2.733 2.02-3.977h-9.91ZM0 37.061h32.324a2.533 2.533 0 0 1-.054-2.23l.118-.257H0v2.487ZM36.898 37.061H73v-2.487H38.044l-1.087 2.378c-.017.038-.04.072-.06.109Z"/><path d="M32.793 35.069a1.98 1.98 0 0 0 .862 2.57 2.01 2.01 0 0 0 2.041-.074c.324-.207.58-.502.739-.85l3.381-7.398 8.325-1.135a2.008 2.008 0 0 0 1.321-.769 1.986 1.986 0 0 0 .388-1.473 1.998 1.998 0 0 0-2.253-1.7l-9.417 1.285a2.005 2.005 0 0 0-1.549 1.147l-3.838 8.397Z"/></svg>