<svg xmlns="http://www.w3.org/2000/svg" viewBox="0 0 38 41"><path d="m9.78 15.64-.03-.05-.04-.06a1.42 1.42 0 0 1-.06-.11l-.03-.07-.02-.05-.02-.07-.01-.06-.02-.07-.01-.06-.01-.07V7.72a1.36 1.36 0 0 1 2.72 0v3.42l1.63-1.92.08-.1h10.08l.08.1 1.63 1.92V7.72a1.36 1.36 0 0 1 2.73 0v7.17l-.01.08v.07l-.02.06c0 .02 0 .05-.02.07l-.01.06-.02.07-.02.06-.03.06-.03.06-.03.05-.04.06c0 .02-.02.04-.03.05l-.05.06c0 .02-.02.03-.04.05l-.04.05-.06.05-.03.03h-.01l-.05.04-.05.05c-.02 0-.03.02-.05.03l-.06.03a1.19 1.19 0 0 1-.12.06 1.43 1.43 0 0 1-.24.08l-.05.01-.08.01-.05.01h-.27l-.14-.02-.02-.01c-.04 0-.08-.02-.11-.03l-.04-.01a1.33 1.33 0 0 1-.1-.04l-.04-.02a1.28 1.28 0 0 1-.3-.2l-.05-.05a1.37 1.37 0 0 1-.07-.07l-.02-.02-2.47-2.9v25.4a2.1 2.1 0 1 1-4.2 0V22.89h-.79v15.36a2.1 2.1 0 1 1-4.2 0V12.79l-2.5 2.94-.02.02-.07.07-.04.04c-.1.09-.2.15-.3.2l-.06.03a1.4 1.4 0 0 1-.08.04l-.05.01-.1.03h-.03c-.04.02-.09.02-.13.03h-.33a1.31 1.31 0 0 1-.44-.14l-.05-.03-.06-.03-.05-.03-.05-.04-.05-.04-.04-.04-.06-.05-.04-.05-.04-.05-.05-.06Z"/><path d="M25.36 8.74H12.64V7.72c0-.24-.05-.47-.14-.68h13c-.09.2-.14.44-.14.68v1.02ZM28.73 7.04H38v1.7h-9.13V7.72c0-.24-.05-.47-.14-.68ZM9.13 8.74H0v-1.7h9.27c-.09.2-.14.44-.14.68v1.02ZM15.19 3.83a3.83 3.83 0 1 1 6.41 2.81h-5.18a3.82 3.82 0 0 1-1.23-2.81Z"/></svg>