<svg xmlns="http://www.w3.org/2000/svg" fill="none" viewBox="0 0 99 99"><g fill="#000" clip-path="url(#a)"><path d="M65.986 32.596c-9.477.56-15.1 2.255-23.682 7.396-3.576 2.56-4.533 5.464-4.356 8.258-5.936 3.396-19.175 10.327-33.355 13.725A6 6 0 1 0 7.41 73.64c18.618-4.53 34.594-13.779 39.063-16.493.457-.2.907-.416 1.349-.646 5.15-3.218 11.817-4.782 17.452-5.923l-1.297-8.11a4.86 4.86 0 0 1 .867-3.639 4.847 4.847 0 0 1 3.189-1.959 4.863 4.863 0 0 1 5.598 4.054l1.082 6.765c2.122-1.61 3.454-3.994 3.033-6.52-.702-4.212-4.867-8.936-11.76-8.572Z"/><path d="M68.171 37.746a4 4 0 0 0-3.317 4.581l4.437 27.742a4.004 4.004 0 0 0 4.583 3.318 4 4 0 0 0 3.317-4.582l-4.438-27.742a3.999 3.999 0 0 0-4.582-3.317ZM98.902 36.448c.701-5.477-3.17-10.485-8.646-11.187-5.477-.701-10.485 3.17-11.187 8.646-.701 5.477 3.17 10.486 8.646 11.187 5.477.702 10.485-3.17 11.187-8.646Z"/></g><defs><clipPath id="a"><path fill="#fff" d="M0 0h99v99H0z"/></clipPath></defs></svg>