<svg xmlns="http://www.w3.org/2000/svg" viewBox="0 0 84 84"><path d="M68.669 36.225V1.312C68.669.656 68.144 0 67.356 0c-.787 0-1.312.656-1.312 1.313v32.68l5.381 8.532c1.706 2.625 1.313 5.906-.263 8.006 6.038-3.675 4.332-13.125-2.493-14.306Zm-55.388 6.3 5.513-8.663V1.313C18.794.656 18.269 0 17.48 0c-.787 0-1.312.656-1.312 1.313v34.912C12.625 36.881 10 40.031 10 43.837c0 2.757 1.444 5.25 3.544 6.563-1.707-2.231-1.838-5.381-.263-7.875Z"/><path d="M57.381 25.069c-.787-1.313-2.231-2.1-3.675-2.1H31.131c-1.444 0-2.887.787-3.675 2.1l-11.944 18.9c-1.312 2.1-.656 4.987 1.444 6.3 2.1 1.312 4.988.787 6.3-1.444l6.825-10.763V78.75c0 2.888 2.363 5.25 5.25 5.25 2.888 0 5.25-2.362 5.25-5.25V54.862c0-1.05.919-1.968 1.969-1.968s1.969.919 1.969 1.968V78.75c0 2.888 2.362 5.25 5.25 5.25 2.887 0 5.25-2.362 5.25-5.25V37.931c1.968 3.019 3.412 5.382 4.462 7.219 2.494 4.2 3.413 5.775 6.169 5.775.919 0 1.706-.262 2.494-.656 2.1-1.313 2.756-4.2 1.444-6.3l-12.207-18.9ZM42.42 21.13c4.331 0 7.744-3.544 7.744-7.875 0-4.331-3.544-7.744-7.744-7.744-4.331 0-7.875 3.544-7.875 7.744 0 4.463 3.544 7.875 7.875 7.875Z"/></svg>